#!OML:ASF F:\VICON\USERDATA\INSTALL\Justin_Nancy\Justin_Nancy.ASF
:FULLY-SPECIFIED
:DEGREES
33
root 9.2063 16.533 -11.9468 -0.0325623 -8.44128 10.1716
lowerback 9.18545 3.53325 0.854282
upperback -1.69927 4.69514 -1.88044
thorax -6.70606 2.2323 -3.1431
lowerneck -15.795 -10.3784 -13.2804
upperneck 16.6827 -12.6782 7.88459
head 9.20663 -6.04611 3.10843
rclavicle 1.86112e-014 4.92986e-014
rhumerus -41.4409 12.1107 -91.6132
rradius 99.678
rwrist -9.96769
rhand -11.9128 24.8473
rfingers 7.12502
rthumb 14.1411 -4.65149
lclavicle 1.86112e-014 4.92986e-014
lhumerus -54.8531 -5.54971 94.8583
lradius 108.07
lwrist 26.6938
lhand -8.37054 12.6086
lfingers 7.12502
lthumb 17.5523 41.8362
rfemur 7.82886 8.29622 32.525
rtibia 63.3268
rfoot 8.52637 -2.96634
rtoes 8.4863
lfemur -32.2595 -11.4719 -14.7221
ltibia 31.3349
lfoot -2.54946 -14.0308
ltoes -18.1028
34
root 9.09626 16.4245 -11.5729 -0.640004 -8.9398 10.7179
lowerback 9.94305 3.32366 0.0547643
upperback -1.55084 4.32246 -1.74874
thorax -7.07024 2.07575 -2.55451
lowerneck -15.5693 -10.1595 -13.175
upperneck 16.0852 -12.436 8.11293
head 8.94268 -5.91192 3.22331
rclavicle 2.31708e-014 1.59028e-015
rhumerus -41.0885 11.8675 -92.1201
rradius 98.9322
rwrist -9.68549
rhand -12.545 25.0311
rfingers 7.12502
rthumb 13.5317 -4.50922
lclavicle 2.31708e-014 1.59028e-015
lhumerus -53.8979 -6.18557 95.0406
lradius 108.824
lwrist 26.4476
lhand -9.37432 13.1289
lfingers 7.12502
lthumb 16.5861 42.4402
rfemur 5.82418 7.78003 31.2321
rtibia 68.2289
rfoot 7.49524 -3.42948
rtoes 9.73261
lfemur -31.1971 -11.9917 -14.9532
ltibia 33.0693
lfoot -5.52652 -13.5535
ltoes -14.9505
35
root 8.98542 16.305 -11.1956 -1.42465 -9.92495 11.0605
lowerback 10.8293 3.2453 -0.549283
upperback -1.27244 4.14037 -1.58374
thorax -7.34143 2.00888 -2.06411
lowerneck -15.7547 -10.0558 -13.0942
upperneck 15.8377 -12.2959 8.2456
head 8.87857 -5.82343 3.27296
rclavicle 1.10822e-014 -2.70347e-014
rhumerus -41.4905 11.3437 -92.9683
rradius 98.877
rwrist -10.7013
rhand -13.2727 24.4737
rfingers 7.12502
rthumb 12.8303 -5.11196
lclavicle 1.10822e-014 -2.70347e-014
lhumerus -52.8246 -6.79934 95.1265
lradius 109.557
lwrist 25.8016
lhand -10.4839 14.1229
lfingers 7.12502
lthumb 15.5176 43.5202
rfemur 3.91218 7.59918 30.1657
rtibia 73.0526
rfoot 6.25897 -3.84033
rtoes 10.2828
lfemur -29.6538 -11.8739 -15.1646
ltibia 34.8882
lfoot -9.49231 -13.3045
ltoes -16.0694
36
root 8.86187 16.2561 -10.8 -1.97725 -11.07 11.6408
lowerback 11.5965 3.2197 -1.32576
upperback -1.13575 3.98897 -1.50709
thorax -7.69646 1.96259 -1.56955
lowerneck -16.5234 -9.9617 -12.9017
upperneck 16.0124 -12.1021 8.15475
head 9.03255 -5.7069 3.21337
rclavicle -3.70982e-014 -2.70347e-014
rhumerus -41.8825 10.6568 -93.6056
rradius 98.977
rwrist -10.46
rhand -13.4233 23.9421
rfingers 7.12502
rthumb 12.6851 -5.65265
lclavicle -3.70982e-014 -2.70347e-014
lhumerus -51.9495 -7.26119 95.1158
lradius 110.314
lwrist 25.6901
lhand -10.4674 14.2524
lfingers 7.12502
lthumb 15.5335 43.6485
rfemur 1.66296 7.53881 28.5842
rtibia 77.424
rfoot 5.44005 -4.11441
rtoes 9.71417
lfemur -28.5351 -11.4331 -15.7541
ltibia 36.7421
lfoot -11.9205 -13.0958
ltoes -12.0147
37
root 8.74076 16.1976 -10.4155 -2.39305 -12.007 13.0369
lowerback 11.6709 3.1598 -2.78625
upperback -0.874236 3.68559 -1.73009
thorax -7.5431 1.86848 -0.928826
lowerneck -16.9291 -9.83093 -12.7315
upperneck 15.6734 -11.9094 8.27704
head 8.96302 -5.58303 3.24727
rclavicle 5.02925e-014 -1.27222e-014
rhumerus -41.4833 10.2197 -94.0414
rradius 98.7912
rwrist -9.09239
rhand -13.5716 23.5572
rfingers 7.12502
rthumb 12.5422 -6.04633
lclavicle 5.02925e-014 -1.27222e-014
lhumerus -50.6369 -7.77565 94.9005
lradius 110.832
lwrist 26.2491
lhand -9.61484 13.4261
lfingers 7.12502
lthumb 16.3545 42.7565
rfemur -1.08538 7.14829 25.7965
rtibia 81.7131
rfoot 4.59303 -4.02652
rtoes 8.70527
lfemur -27.4589 -10.7969 -17.3667
ltibia 38.3819
lfoot -14.0587 -12.0548
ltoes -12.066
38
root 8.61513 16.13 -10.0496 -2.94238 -12.8752 15.0956
lowerback 12.0553 3.14538 -4.98628
upperback -0.783107 3.29851 -2.1166
thorax -7.77092 1.75804 -0.0593488
lowerneck -17.4041 -9.71031 -12.6927
upperneck 15.593 -11.7199 8.45253
head 9.00695 -5.46079 3.31546
rclavicle -5.61567e-015 -9.54166e-015
rhumerus -41.5743 9.90949 -94.7896
rradius 98.32
rwrist -9.42571
rhand -13.9697 23.729
rfingers 7.12502
rthumb 12.1583 -5.89774
lclavicle -5.61567e-015 -9.54166e-015
lhumerus -49.2355 -8.4638 94.6206
lradius 111.079
lwrist 26.9088
lhand -9.09494 12.9803
lfingers 7.12502
lthumb 16.855 42.2688
rfemur -4.11 6.53268 22.1114
rtibia 85.8783
rfoot 3.44295 -3.60703
rtoes 8.07238
lfemur -26.0951 -10.0392 -19.752
ltibia 39.6479
lfoot -16.2191 -10.7094
ltoes -14.7469
39
root 8.48049 16.0732 -9.68828 -3.4347 -13.936 17.0697
lowerback 12.212 3.23744 -7.14472
upperback -0.651862 3.0633 -2.50471
thorax -7.81368 1.71811 0.768986
lowerneck -18.3304 -9.68763 -12.5462
upperneck 15.8966 -11.6335 8.47756
head 9.25646 -5.38028 3.28266
rclavicle 1.93815e-014 -5.40694e-014
rhumerus -42.2775 8.74956 -95.5091
rradius 98.7745
rwrist -9.54461
rhand -13.8277 23.8242
rfingers 7.12502
rthumb 12.2952 -5.79432
lclavicle 1.93815e-014 -5.40694e-014
lhumerus -47.6151 -9.36148 94.2659
lradius 111.163
lwrist 27.3145
lhand -9.11519 12.6576
lfingers 7.12502
lthumb 16.8356 41.9478
rfemur -7.36767 6.04158 18.5525
rtibia 89.7393
rfoot 1.643 -3.20843
rtoes 8.68027
lfemur -24.704 -9.11217 -21.9518
ltibia 40.4355
lfoot -17.9975 -9.712
ltoes -16.0031
40
root 8.3353 16.0453 -9.32266 -3.64742 -14.9196 18.5289
lowerback 11.9767 3.20918 -8.76749
upperback -0.537362 2.79804 -2.76574
thorax -7.61292 1.63846 1.45766
lowerneck -18.9839 -9.62643 -12.5497
upperneck 16.0297 -11.5233 8.71319
head 9.4213 -5.28457 3.3613
rclavicle -4.9398e-014 2.38542e-014
rhumerus -42.0207 8.96948 -96.0724
rradius 97.9201
rwrist -10.4983
rhand -14.581 23.9794
rfingers 7.12502
rthumb 11.5688 -5.68126
lclavicle -4.9398e-014 2.38542e-014
lhumerus -46.0883 -10.1234 93.7509
lradius 111.15
lwrist 27.625
lhand -9.28026 12.2424
lfingers 7.12502
lthumb 16.6766 41.546
rfemur -10.7306 5.42787 15.6502
rtibia 92.9815
rfoot -0.367338 -2.94611
rtoes 9.43336
lfemur -23.4185 -8.50184 -23.4583
ltibia 40.8052
lfoot -19.4151 -8.6904
ltoes -16.075
41
root 8.1903 16.0256 -9.00853 -3.4924 -14.7463 18.8887
lowerback 12.4367 2.72015 -9.22745
upperback -0.495192 2.02444 -2.77928
thorax -7.77325 1.28357 1.83329
lowerneck -19.5712 -9.56088 -12.3616
upperneck 15.865 -11.4067 8.7651
head 9.44514 -5.19595 3.35172
rclavicle -3.22031e-014 3.18055e-015
rhumerus -42.826 8.34617 -96.6781
rradius 98.4858
rwrist -11.1503
rhand -14.6917 24.0467
rfingers 7.12502
rthumb 11.4621 -5.61998
lclavicle -3.22031e-014 3.18055e-015
lhumerus -44.5428 -10.7337 93.1542
lradius 111.077
lwrist 28.0304
lhand -9.42762 11.7994
lfingers 7.12502
lthumb 16.5348 41.1149
rfemur -14.2062 3.55039 14.0942
rtibia 95.6834
rfoot -1.93224 -2.8556
rtoes 9.4409
lfemur -22.3526 -8.54875 -23.777
ltibia 40.9521
lfoot -20.7787 -8.32314
ltoes -16.3067
42
root 8.05561 16.0221 -8.66669 -3.38053 -15.5035 18.7233
lowerback 12.6064 2.36151 -8.87849
upperback -0.388855 1.58972 -2.73467
thorax -7.6973 1.05487 1.77293
lowerneck -20.7166 -9.41537 -11.8265
upperneck 16.0749 -11.1356 8.33201
head 9.62605 -5.04816 3.1287
rclavicle 5.66536e-015 1.74931e-014
rhumerus -43.8045 8.01968 -97.4385
rradius 99.2261
rwrist -11.9413
rhand -14.3336 23.9848
rfingers 7.12502
rthumb 11.8074 -5.66231
lclavicle 5.66536e-015 1.74931e-014
lhumerus -43.2166 -11.0077 92.4852
lradius 111.069
lwrist 28.0521
lhand -10.0644 10.5841
lfingers 7.12502
lthumb 15.9216 39.9497
rfemur -17.5015 2.69411 13.3548
rtibia 97.7092
rfoot -2.84288 -2.665
rtoes 9.58105
lfemur -20.8239 -8.23846 -23.5939
ltibia 40.9132
lfoot -22.3984 -7.58118
ltoes -17.8885
43
root 7.92037 16.0193 -8.31795 -3.15176 -16.6041 18.1987
lowerback 12.2455 1.99834 -8.12817
upperback -0.123276 1.28801 -2.60134
thorax -7.15547 0.860976 1.57614
lowerneck -21.625 -9.12308 -11.4345
upperneck 16.173 -10.7038 8.14822
head 9.73742 -4.81769 3.05173
rclavicle 7.55382e-015 1.59028e-014
rhumerus -44.2768 8.24476 -98.1803
rradius 99.6684
rwrist -12.8035
rhand -14.2215 24.1437
rfingers 7.12502
rthumb 11.9155 -5.4972
lclavicle 7.55382e-015 1.59028e-014
lhumerus -41.6635 -11.167 91.7839
lradius 111.036
lwrist 27.9135
lhand -11.0465 10.1216
lfingers 7.12502
lthumb 14.9757 39.5601
rfemur -20.8004 2.23977 13.2347
rtibia 99.2092
rfoot -3.45546 -2.28164
rtoes 8.72332
lfemur -19.2887 -7.84321 -23.0299
ltibia 40.8261
lfoot -23.7801 -6.3866
ltoes -20.0913
